PathFileType	4	(X/Y/Z)	30_1_25_p0_0-400_filt_butterworth.trc
DataRate	CameraRate	NumFrames	NumMarkers	Units	OrigDataRate	OrigDataStartFrame	OrigNumFrames
60.0	60.0	5	27	m	60.0	300	400
Frame#	Time	RHip			RKnee			RAnkle			RBigToe			RSmallToe			RHeel			LHip			LKnee			LAnkle			LBigToe			LSmallToe			LHeel			Neck			Head			Nose			RShoulder			RElbow			RWrist			RThumb			RIndex			RPinky			LShoulder			LElbow			LWrist			LThumb			LIndex			LPinky			
		X1	Y1	Z1	X2	Y2	Z2	X3	Y3	Z3	X4	Y4	Z4	X5	Y5	Z5	X6	Y6	Z6	X7	Y7	Z7	X8	Y8	Z8	X9	Y9	Z9	X10	Y10	Z10	X11	Y11	Z11	X12	Y12	Z12	X13	Y13	Z13	X14	Y14	Z14	X15	Y15	Z15	X16	Y16	Z16	X17	Y17	Z17	X18	Y18	Z18	X19	Y19	Z19	X20	Y20	Z20	X21	Y21	Z21	X22	Y22	Z22	X23	Y23	Z23	X24	Y24	Z24	X25	Y25	Z25	X26	Y26	Z26	X27	Y27	Z27	
300	5.0	0.24990000423238154	0.4345439274582576	0.9829723241464503	0.268804978069614	0.4783653090657247	1.3986962080081633	0.2735480901091265	0.519534186150756	1.7773628526956333	0.2582803079747199	0.3211324434166336	1.7990235463032056	0.3186646087934297	0.35543159376163547	1.79257291874846	0.25295724446302237	0.6142795372187986	1.8651169115705706	0.06834253801136142	0.44863579137289333	0.9946168720049513	0.06701919640188626	0.5197594836721848	1.437176338813964	0.08153365580423629	0.5185991493615635	1.7847675284101632	0.08845921665110734	0.3150754103876664	1.788778366534093	0.03211479066474682	0.39225511909696914	1.8160165362848801	0.09638454504205828	0.5390658050979986	1.8204310583105625	0.14586471320856392	0.43290079017917504	0.4993687002795091	0.13223504968830418	0.3370757258333324	0.26746376056387017	0.14482860046142482	0.30215717887897203	0.42333543607759994	0.28330945258162316	0.44636470774749837	0.5393977260849545	0.4353460093356254	0.34694046493710906	0.6711298669857655	0.3078645859124285	0.31148306772480827	0.5010450266847022	0.24232249322854124	0.3443660906724474	0.4533329662927023	0.2594470032522573	0.2876525900345418	0.43122994619419464	0.27702718603320053	0.26721223911265535	0.44383629015476905	0.0057538250392469535	0.44339415683785227	0.5559031183228388	-0.04407857270039908	0.3259640083636607	0.7194571509024421	0.029135883029355703	0.3420451383245165	0.5418804862912988	0.04456361964571465	0.37027795843989425	0.4730376888603397	0.04103681325471737	0.3590064411938506	0.46137943980698587	0.029512622734529495	0.34344470445349046	0.4689387833643347
301	5.016666666666667	0.24999168861461532	0.43219624614867724	0.9817755665649095	0.26902986697165465	0.47847955783495283	1.3974833842844574	0.2735690914428718	0.5194268033263101	1.7773240531158574	0.25742226046938016	0.32017386660423014	1.7976697575513003	0.3194383332328577	0.3502681707173318	1.7893380902550198	0.253210395919815	0.6143501864330245	1.8653409372700862	0.06872093909537631	0.44419931224991527	0.9937614563176301	0.06693147109248108	0.5201282678322166	1.4362846753335685	0.08153523786098599	0.5186049388476591	1.7847554623020851	0.08854930374015064	0.31577510348359555	1.7887647150147188	0.032155980280529496	0.3922136871112169	1.8158910700220456	0.09632591921683974	0.5391798457273043	1.8202617263139391	0.14583560745023427	0.43305238579068617	0.4996089168687026	0.13221168449650378	0.33805341957546586	0.26665392460291304	0.14436162825686807	0.3033513571618348	0.42357476538571737	0.2832408959197267	0.44643417293392507	0.5393463623441093	0.43563352957074347	0.34705680167081754	0.6721528595794319	0.3085534470043454	0.31120421863142733	0.5019252611983672	0.24176569057974917	0.3439871675667288	0.452359434958772	0.2580059906143003	0.28718141620036175	0.43178204628729794	0.2761611594524216	0.26460195493448163	0.44415422273092037	0.0058348447402216085	0.443573459799789	0.5548276997100396	-0.043966226080287184	0.32556188398814384	0.7197220216232803	0.029108081047624603	0.34210539151835706	0.5415811622949948	0.0445860182656365	0.37032792906505835	0.47312317969665935	0.04097883341083357	0.3590349267152737	0.46206132581340564	0.029776641756596153	0.34473566938584643	0.46913919790171243
302	5.033333333333333	0.2500502862257207	0.4287202741536088	0.9808843906477309	0.2686821316577874	0.4773598128577058	1.395479012183612	0.27358191782509184	0.5193388819820868	1.777306658018929	0.2566026801565505	0.3199945574763707	1.797127617575157	0.3198272458716625	0.34635469298593835	1.7869055488283863	0.25351322744294935	0.6145200892453336	1.865682786810478	0.06902397015298192	0.43970035585466244	0.9929764932624054	0.06690522867094664	0.5202917953717663	1.4357881168656152	0.08152852480842832	0.5186053142781979	1.7847586742304005	0.08869661433087862	0.31617408995675084	1.7893994106466011	0.03219015929957833	0.3921888894875367	1.8158378960184849	0.09632412897659315	0.539310051281231	1.8202632952428566	0.1458731196596629	0.4331181767979253	0.5003436628458836	0.13216247153902266	0.3417613100294856	0.2658482567433897	0.14385334022021012	0.3044734808474	0.42344406846700794	0.28317576547107914	0.44659162491781723	0.5393745867501976	0.43580622167388566	0.34687445272093903	0.67284880105438	0.3096739490238487	0.3111716861770559	0.5034381653501014	0.24172984964963332	0.3440213180247498	0.4517138860713701	0.25558746993689285	0.2870319971921835	0.4327199980071106	0.2750973393179394	0.2613799772852247	0.44487729958348843	0.005947045884402174	0.4437051291572751	0.5540503836916039	-0.04382693931716287	0.3251097004555545	0.7200196327618746	0.029152678770649545	0.3421877346875194	0.540869052915098	0.044659286702521665	0.3705536159777654	0.4733450480419454	0.04096913810200091	0.35901164808084185	0.4623355992657195	0.029800796107596013	0.3450975771691085	0.46917984116424
303	5.05	0.250058463831109	0.42583932652706424	0.9805129654386937	0.2674521788359716	0.47418516747693346	1.3933264848080071	0.2735860635931896	0.5192984709858429	1.7773241855094106	0.2562439150654213	0.31961520316156977	1.7960964345806556	0.31987127319693853	0.3447788877061501	1.7859752213166935	0.25370556416456613	0.614798935941176	1.8661284597443961	0.068795221623155	0.4367302065038762	0.9923466890911554	0.06698506175368134	0.5202757304744577	1.435410103848175	0.08151362565963141	0.5185883588638722	1.7847559901834806	0.08889632294493505	0.31624283781488277	1.7906607232221696	0.032212875236917474	0.392200390835148	1.8158319833479561	0.09635559745901529	0.5393030879742533	1.8202018129596347	0.14627028908917145	0.4333239733264275	0.5010576253839462	0.13198691251223782	0.3480821229693867	0.26565260078337927	0.14278860098577206	0.307091207667838	0.42306337368439406	0.28313619494437386	0.44679218490532785	0.5398145257608467	0.43566549571099045	0.3468682700050765	0.6738253472035841	0.31072855556116974	0.31148235431813615	0.505519289611351	0.2418205749397902	0.34371003365507197	0.4516549299675865	0.25246035741937356	0.2882464358660157	0.4332071524045009	0.27431837915297425	0.2589184994207516	0.44596370186248413	0.00609732440886088	0.4437965148065987	0.5536948585754708	-0.043738527436283085	0.32482083968469244	0.7203121575751296	0.029238223738942956	0.34227249749709165	0.5402026648997058	0.044958998803269604	0.3717579118625337	0.4737197448609156	0.04101520598310015	0.35901122111032535	0.4622388267902045	0.02969865532915799	0.34491063674103384	0.46911485636612
304	5.066666666666666	0.2500508655802722	0.42455065876055914	0.9804627306251331	0.2658011621743384	0.46986588511943056	1.39205699376424	0.27357016278107577	0.5192955377405478	1.7773496548205363	0.2565204617852713	0.3179178282423234	1.794013468439928	0.31979676618050124	0.34473927595665166	1.7860206930546083	0.2536740631157884	0.615074103014075	1.866437535802394	0.06808041904951899	0.43642145830336	0.9919788766379901	0.0672100732228553	0.5201831876829446	1.4349080901629139	0.08149486609772036	0.5185540738257053	1.7847352116314736	0.0890685566451671	0.315889107466148	1.7919891117320903	0.03222499601201275	0.3922182546921662	1.815809097303343	0.09643014778720467	0.5390584106678142	1.8199727551225104	0.14723679540220597	0.43381963469277796	0.5016326211262335	0.13144148919512427	0.3544139655133262	0.2660184562315149	0.1413966325999225	0.31082753140902936	0.422640075375026	0.28312910316495155	0.4469323915615579	0.5410590293833204	0.43485551222037905	0.34801765417313185	0.6755739861265342	0.31141545413883476	0.31198223173709616	0.5077347674328002	0.24158579118805296	0.3418760050526655	0.45200709841778786	0.2490107801715029	0.2903539107531992	0.4329133764762581	0.2740081432089586	0.2579215342028437	0.44684599572808015	0.006277029386275726	0.44386616639647825	0.5534674057053205	-0.04369026222440656	0.32462780968151694	0.7205335869105957	0.029319589914315224	0.34238023163520315	0.5397923707933301	0.0456211654673299	0.37469136122118557	0.4740726931424262	0.04107741371910041	0.359039515503901	0.46180725278029533	0.02938519272995206	0.3436523898337203	0.46884825250097917
